<svg xmlns="http://www.w3.org/2000/svg" xmlns:xlink="http://www.w3.org/1999/xlink" width="500"
    zoomAndPan="magnify" viewBox="0 0 375 374.999991" height="500"
    preserveAspectRatio="xMidYMid meet" version="1.0">
    <defs>
        <clipPath id="0dc809455a">
            <path
                d="M 91.960938 102.132812 L 140.710938 102.132812 L 140.710938 165.925781 L 91.960938 165.925781 Z M 91.960938 102.132812 "
                clip-rule="nonzero" />
        </clipPath>
        <clipPath id="294a96a336">
            <path
                d="M 100.210938 102.132812 L 132.460938 102.132812 C 137.015625 102.132812 140.710938 105.824219 140.710938 110.382812 L 140.710938 157.632812 C 140.710938 162.1875 137.015625 165.882812 132.460938 165.882812 L 100.210938 165.882812 C 95.65625 165.882812 91.960938 162.1875 91.960938 157.632812 L 91.960938 110.382812 C 91.960938 105.824219 95.65625 102.132812 100.210938 102.132812 Z M 100.210938 102.132812 "
                clip-rule="nonzero" />
        </clipPath>
        <clipPath id="e3f1cb9e06">
            <path
                d="M 0.960938 0.132812 L 49.710938 0.132812 L 49.710938 63.925781 L 0.960938 63.925781 Z M 0.960938 0.132812 "
                clip-rule="nonzero" />
        </clipPath>
        <clipPath id="3ed97d3b48">
            <path
                d="M 9.210938 0.132812 L 41.460938 0.132812 C 46.015625 0.132812 49.710938 3.824219 49.710938 8.382812 L 49.710938 55.632812 C 49.710938 60.1875 46.015625 63.882812 41.460938 63.882812 L 9.210938 63.882812 C 4.65625 63.882812 0.960938 60.1875 0.960938 55.632812 L 0.960938 8.382812 C 0.960938 3.824219 4.65625 0.132812 9.210938 0.132812 Z M 9.210938 0.132812 "
                clip-rule="nonzero" />
        </clipPath>
        <clipPath id="c36654fdd7">
            <rect x="0" width="50" y="0" height="64" />
        </clipPath>
        <clipPath id="f647ac8462">
            <path
                d="M 162.910156 102.132812 L 211.660156 102.132812 L 211.660156 165.925781 L 162.910156 165.925781 Z M 162.910156 102.132812 "
                clip-rule="nonzero" />
        </clipPath>
        <clipPath id="2885f6231a">
            <path
                d="M 171.160156 102.132812 L 203.410156 102.132812 C 207.964844 102.132812 211.660156 105.824219 211.660156 110.382812 L 211.660156 157.632812 C 211.660156 162.1875 207.964844 165.882812 203.410156 165.882812 L 171.160156 165.882812 C 166.601562 165.882812 162.910156 162.1875 162.910156 157.632812 L 162.910156 110.382812 C 162.910156 105.824219 166.601562 102.132812 171.160156 102.132812 Z M 171.160156 102.132812 "
                clip-rule="nonzero" />
        </clipPath>
        <clipPath id="de6be52e6e">
            <path
                d="M 0.910156 0.132812 L 49.660156 0.132812 L 49.660156 63.925781 L 0.910156 63.925781 Z M 0.910156 0.132812 "
                clip-rule="nonzero" />
        </clipPath>
        <clipPath id="cb4e5c7a96">
            <path
                d="M 9.160156 0.132812 L 41.410156 0.132812 C 45.964844 0.132812 49.660156 3.824219 49.660156 8.382812 L 49.660156 55.632812 C 49.660156 60.1875 45.964844 63.882812 41.410156 63.882812 L 9.160156 63.882812 C 4.601562 63.882812 0.910156 60.1875 0.910156 55.632812 L 0.910156 8.382812 C 0.910156 3.824219 4.601562 0.132812 9.160156 0.132812 Z M 9.160156 0.132812 "
                clip-rule="nonzero" />
        </clipPath>
        <clipPath id="a9678e57c7">
            <rect x="0" width="50" y="0" height="64" />
        </clipPath>
        <clipPath id="e715601032">
            <path
                d="M 233.855469 102.132812 L 282.605469 102.132812 L 282.605469 165.925781 L 233.855469 165.925781 Z M 233.855469 102.132812 "
                clip-rule="nonzero" />
        </clipPath>
        <clipPath id="6a9637f819">
            <path
                d="M 242.105469 102.132812 L 274.355469 102.132812 C 278.914062 102.132812 282.605469 105.824219 282.605469 110.382812 L 282.605469 157.632812 C 282.605469 162.1875 278.914062 165.882812 274.355469 165.882812 L 242.105469 165.882812 C 237.550781 165.882812 233.855469 162.1875 233.855469 157.632812 L 233.855469 110.382812 C 233.855469 105.824219 237.550781 102.132812 242.105469 102.132812 Z M 242.105469 102.132812 "
                clip-rule="nonzero" />
        </clipPath>
        <clipPath id="731d6c01a2">
            <path
                d="M 0.855469 0.132812 L 49.605469 0.132812 L 49.605469 63.925781 L 0.855469 63.925781 Z M 0.855469 0.132812 "
                clip-rule="nonzero" />
        </clipPath>
        <clipPath id="f6c2715929">
            <path
                d="M 9.105469 0.132812 L 41.355469 0.132812 C 45.914062 0.132812 49.605469 3.824219 49.605469 8.382812 L 49.605469 55.632812 C 49.605469 60.1875 45.914062 63.882812 41.355469 63.882812 L 9.105469 63.882812 C 4.550781 63.882812 0.855469 60.1875 0.855469 55.632812 L 0.855469 8.382812 C 0.855469 3.824219 4.550781 0.132812 9.105469 0.132812 Z M 9.105469 0.132812 "
                clip-rule="nonzero" />
        </clipPath>
        <clipPath id="643931d46e">
            <rect x="0" width="50" y="0" height="64" />
        </clipPath>
        <clipPath id="450907e51f">
            <path
                d="M 49.671875 102.089844 L 69.761719 102.089844 L 69.761719 165.96875 L 49.671875 165.96875 Z M 49.671875 102.089844 "
                clip-rule="nonzero" />
        </clipPath>
        <clipPath id="654b286506">
            <path
                d="M 57.921875 102.089844 L 61.511719 102.089844 C 66.070312 102.089844 69.761719 105.78125 69.761719 110.339844 L 69.761719 157.675781 C 69.761719 162.234375 66.070312 165.925781 61.511719 165.925781 L 57.921875 165.925781 C 53.367188 165.925781 49.671875 162.234375 49.671875 157.675781 L 49.671875 110.339844 C 49.671875 105.78125 53.367188 102.089844 57.921875 102.089844 Z M 57.921875 102.089844 "
                clip-rule="nonzero" />
        </clipPath>
        <clipPath id="245ad75898">
            <path
                d="M 0.671875 0.0898438 L 20.761719 0.0898438 L 20.761719 63.96875 L 0.671875 63.96875 Z M 0.671875 0.0898438 "
                clip-rule="nonzero" />
        </clipPath>
        <clipPath id="2c37ad9174">
            <path
                d="M 8.921875 0.0898438 L 12.511719 0.0898438 C 17.070312 0.0898438 20.761719 3.78125 20.761719 8.339844 L 20.761719 55.675781 C 20.761719 60.234375 17.070312 63.925781 12.511719 63.925781 L 8.921875 63.925781 C 4.367188 63.925781 0.671875 60.234375 0.671875 55.675781 L 0.671875 8.339844 C 0.671875 3.78125 4.367188 0.0898438 8.921875 0.0898438 Z M 8.921875 0.0898438 "
                clip-rule="nonzero" />
        </clipPath>
        <clipPath id="17451aa8e7">
            <rect x="0" width="21" y="0" height="64" />
        </clipPath>
        <clipPath id="e564d54f69">
            <path
                d="M 304.804688 102.089844 L 324.894531 102.089844 L 324.894531 165.96875 L 304.804688 165.96875 Z M 304.804688 102.089844 "
                clip-rule="nonzero" />
        </clipPath>
        <clipPath id="faf632844a">
            <path
                d="M 313.054688 102.089844 L 316.644531 102.089844 C 321.203125 102.089844 324.894531 105.78125 324.894531 110.339844 L 324.894531 157.675781 C 324.894531 162.234375 321.203125 165.925781 316.644531 165.925781 L 313.054688 165.925781 C 308.5 165.925781 304.804688 162.234375 304.804688 157.675781 L 304.804688 110.339844 C 304.804688 105.78125 308.5 102.089844 313.054688 102.089844 Z M 313.054688 102.089844 "
                clip-rule="nonzero" />
        </clipPath>
        <clipPath id="329b5fb2a4">
            <path
                d="M 0.804688 0.0898438 L 20.894531 0.0898438 L 20.894531 63.96875 L 0.804688 63.96875 Z M 0.804688 0.0898438 "
                clip-rule="nonzero" />
        </clipPath>
        <clipPath id="2f47edb977">
            <path
                d="M 9.054688 0.0898438 L 12.644531 0.0898438 C 17.203125 0.0898438 20.894531 3.78125 20.894531 8.339844 L 20.894531 55.675781 C 20.894531 60.234375 17.203125 63.925781 12.644531 63.925781 L 9.054688 63.925781 C 4.5 63.925781 0.804688 60.234375 0.804688 55.675781 L 0.804688 8.339844 C 0.804688 3.78125 4.5 0.0898438 9.054688 0.0898438 Z M 9.054688 0.0898438 "
                clip-rule="nonzero" />
        </clipPath>
        <clipPath id="f2417fa8e9">
            <rect x="0" width="21" y="0" height="64" />
        </clipPath>
        <clipPath id="32b216974c">
            <path
                d="M 49.671875 273.660156 L 69.761719 273.660156 L 69.761719 337.542969 L 49.671875 337.542969 Z M 49.671875 273.660156 "
                clip-rule="nonzero" />
        </clipPath>
        <clipPath id="72ec065f33">
            <path
                d="M 57.921875 273.660156 L 61.511719 273.660156 C 66.070312 273.660156 69.761719 277.355469 69.761719 281.910156 L 69.761719 329.25 C 69.761719 333.804688 66.070312 337.5 61.511719 337.5 L 57.921875 337.5 C 53.367188 337.5 49.671875 333.804688 49.671875 329.25 L 49.671875 281.910156 C 49.671875 277.355469 53.367188 273.660156 57.921875 273.660156 Z M 57.921875 273.660156 "
                clip-rule="nonzero" />
        </clipPath>
        <clipPath id="67bbcd4a95">
            <path
                d="M 0.671875 0.660156 L 20.761719 0.660156 L 20.761719 64.542969 L 0.671875 64.542969 Z M 0.671875 0.660156 "
                clip-rule="nonzero" />
        </clipPath>
        <clipPath id="480c90b03f">
            <path
                d="M 8.921875 0.660156 L 12.511719 0.660156 C 17.070312 0.660156 20.761719 4.355469 20.761719 8.910156 L 20.761719 56.25 C 20.761719 60.804688 17.070312 64.5 12.511719 64.5 L 8.921875 64.5 C 4.367188 64.5 0.671875 60.804688 0.671875 56.25 L 0.671875 8.910156 C 0.671875 4.355469 4.367188 0.660156 8.921875 0.660156 Z M 8.921875 0.660156 "
                clip-rule="nonzero" />
        </clipPath>
        <clipPath id="42cac5d0df">
            <rect x="0" width="21" y="0" height="65" />
        </clipPath>
        <clipPath id="e78311051a">
            <path
                d="M 304.804688 273.660156 L 324.894531 273.660156 L 324.894531 337.542969 L 304.804688 337.542969 Z M 304.804688 273.660156 "
                clip-rule="nonzero" />
        </clipPath>
        <clipPath id="c6855810f2">
            <path
                d="M 313.054688 273.660156 L 316.644531 273.660156 C 321.203125 273.660156 324.894531 277.355469 324.894531 281.910156 L 324.894531 329.25 C 324.894531 333.804688 321.203125 337.5 316.644531 337.5 L 313.054688 337.5 C 308.5 337.5 304.804688 333.804688 304.804688 329.25 L 304.804688 281.910156 C 304.804688 277.355469 308.5 273.660156 313.054688 273.660156 Z M 313.054688 273.660156 "
                clip-rule="nonzero" />
        </clipPath>
        <clipPath id="d17e0fd0a2">
            <path
                d="M 0.804688 0.660156 L 20.894531 0.660156 L 20.894531 64.542969 L 0.804688 64.542969 Z M 0.804688 0.660156 "
                clip-rule="nonzero" />
        </clipPath>
        <clipPath id="8e8e049ed3">
            <path
                d="M 9.054688 0.660156 L 12.644531 0.660156 C 17.203125 0.660156 20.894531 4.355469 20.894531 8.910156 L 20.894531 56.25 C 20.894531 60.804688 17.203125 64.5 12.644531 64.5 L 9.054688 64.5 C 4.5 64.5 0.804688 60.804688 0.804688 56.25 L 0.804688 8.910156 C 0.804688 4.355469 4.5 0.660156 9.054688 0.660156 Z M 9.054688 0.660156 "
                clip-rule="nonzero" />
        </clipPath>
        <clipPath id="1374f31ba2">
            <rect x="0" width="21" y="0" height="65" />
        </clipPath>
        <clipPath id="06de0f81a8">
            <path
                d="M 49.671875 187.589844 L 98.421875 187.589844 L 98.421875 251.382812 L 49.671875 251.382812 Z M 49.671875 187.589844 "
                clip-rule="nonzero" />
        </clipPath>
        <clipPath id="4148124155">
            <path
                d="M 57.921875 187.589844 L 90.171875 187.589844 C 94.726562 187.589844 98.421875 191.28125 98.421875 195.839844 L 98.421875 243.089844 C 98.421875 247.644531 94.726562 251.339844 90.171875 251.339844 L 57.921875 251.339844 C 53.367188 251.339844 49.671875 247.644531 49.671875 243.089844 L 49.671875 195.839844 C 49.671875 191.28125 53.367188 187.589844 57.921875 187.589844 Z M 57.921875 187.589844 "
                clip-rule="nonzero" />
        </clipPath>
        <clipPath id="13bf2b166c">
            <path
                d="M 0.671875 0.589844 L 49.421875 0.589844 L 49.421875 64.382812 L 0.671875 64.382812 Z M 0.671875 0.589844 "
                clip-rule="nonzero" />
        </clipPath>
        <clipPath id="4145df6dbd">
            <path
                d="M 8.921875 0.589844 L 41.171875 0.589844 C 45.726562 0.589844 49.421875 4.28125 49.421875 8.839844 L 49.421875 56.089844 C 49.421875 60.644531 45.726562 64.339844 41.171875 64.339844 L 8.921875 64.339844 C 4.367188 64.339844 0.671875 60.644531 0.671875 56.089844 L 0.671875 8.839844 C 0.671875 4.28125 4.367188 0.589844 8.921875 0.589844 Z M 8.921875 0.589844 "
                clip-rule="nonzero" />
        </clipPath>
        <clipPath id="79bbda590f">
            <rect x="0" width="50" y="0" height="65" />
        </clipPath>
        <clipPath id="5b2a10e643">
            <path
                d="M 125.308594 187.589844 L 174.058594 187.589844 L 174.058594 251.382812 L 125.308594 251.382812 Z M 125.308594 187.589844 "
                clip-rule="nonzero" />
        </clipPath>
        <clipPath id="53cd8d075f">
            <path
                d="M 133.558594 187.589844 L 165.808594 187.589844 C 170.363281 187.589844 174.058594 191.28125 174.058594 195.839844 L 174.058594 243.089844 C 174.058594 247.644531 170.363281 251.339844 165.808594 251.339844 L 133.558594 251.339844 C 129 251.339844 125.308594 247.644531 125.308594 243.089844 L 125.308594 195.839844 C 125.308594 191.28125 129 187.589844 133.558594 187.589844 Z M 133.558594 187.589844 "
                clip-rule="nonzero" />
        </clipPath>
        <clipPath id="a24d23b851">
            <path
                d="M 0.308594 0.589844 L 49.058594 0.589844 L 49.058594 64.382812 L 0.308594 64.382812 Z M 0.308594 0.589844 "
                clip-rule="nonzero" />
        </clipPath>
        <clipPath id="620136e061">
            <path
                d="M 8.558594 0.589844 L 40.808594 0.589844 C 45.363281 0.589844 49.058594 4.28125 49.058594 8.839844 L 49.058594 56.089844 C 49.058594 60.644531 45.363281 64.339844 40.808594 64.339844 L 8.558594 64.339844 C 4 64.339844 0.308594 60.644531 0.308594 56.089844 L 0.308594 8.839844 C 0.308594 4.28125 4 0.589844 8.558594 0.589844 Z M 8.558594 0.589844 "
                clip-rule="nonzero" />
        </clipPath>
        <clipPath id="e383069fba">
            <rect x="0" width="50" y="0" height="65" />
        </clipPath>
        <clipPath id="2acdeff956">
            <path
                d="M 200.941406 187.589844 L 249.691406 187.589844 L 249.691406 251.382812 L 200.941406 251.382812 Z M 200.941406 187.589844 "
                clip-rule="nonzero" />
        </clipPath>
        <clipPath id="c7799a8c73">
            <path
                d="M 209.191406 187.589844 L 241.441406 187.589844 C 246 187.589844 249.691406 191.28125 249.691406 195.839844 L 249.691406 243.089844 C 249.691406 247.644531 246 251.339844 241.441406 251.339844 L 209.191406 251.339844 C 204.636719 251.339844 200.941406 247.644531 200.941406 243.089844 L 200.941406 195.839844 C 200.941406 191.28125 204.636719 187.589844 209.191406 187.589844 Z M 209.191406 187.589844 "
                clip-rule="nonzero" />
        </clipPath>
        <clipPath id="89b59820aa">
            <path
                d="M 0.941406 0.589844 L 49.691406 0.589844 L 49.691406 64.382812 L 0.941406 64.382812 Z M 0.941406 0.589844 "
                clip-rule="nonzero" />
        </clipPath>
        <clipPath id="8a1681cb67">
            <path
                d="M 9.191406 0.589844 L 41.441406 0.589844 C 46 0.589844 49.691406 4.28125 49.691406 8.839844 L 49.691406 56.089844 C 49.691406 60.644531 46 64.339844 41.441406 64.339844 L 9.191406 64.339844 C 4.636719 64.339844 0.941406 60.644531 0.941406 56.089844 L 0.941406 8.839844 C 0.941406 4.28125 4.636719 0.589844 9.191406 0.589844 Z M 9.191406 0.589844 "
                clip-rule="nonzero" />
        </clipPath>
        <clipPath id="4bc052146e">
            <rect x="0" width="50" y="0" height="65" />
        </clipPath>
        <clipPath id="82e44a2320">
            <path
                d="M 276.578125 187.589844 L 325.328125 187.589844 L 325.328125 251.382812 L 276.578125 251.382812 Z M 276.578125 187.589844 "
                clip-rule="nonzero" />
        </clipPath>
        <clipPath id="39845e2fd3">
            <path
                d="M 284.828125 187.589844 L 317.078125 187.589844 C 321.632812 187.589844 325.328125 191.28125 325.328125 195.839844 L 325.328125 243.089844 C 325.328125 247.644531 321.632812 251.339844 317.078125 251.339844 L 284.828125 251.339844 C 280.273438 251.339844 276.578125 247.644531 276.578125 243.089844 L 276.578125 195.839844 C 276.578125 191.28125 280.273438 187.589844 284.828125 187.589844 Z M 284.828125 187.589844 "
                clip-rule="nonzero" />
        </clipPath>
        <clipPath id="7f807030c2">
            <path
                d="M 0.578125 0.589844 L 49.328125 0.589844 L 49.328125 64.382812 L 0.578125 64.382812 Z M 0.578125 0.589844 "
                clip-rule="nonzero" />
        </clipPath>
        <clipPath id="e4b2fb9b9a">
            <path
                d="M 8.828125 0.589844 L 41.078125 0.589844 C 45.632812 0.589844 49.328125 4.28125 49.328125 8.839844 L 49.328125 56.089844 C 49.328125 60.644531 45.632812 64.339844 41.078125 64.339844 L 8.828125 64.339844 C 4.273438 64.339844 0.578125 60.644531 0.578125 56.089844 L 0.578125 8.839844 C 0.578125 4.28125 4.273438 0.589844 8.828125 0.589844 Z M 8.828125 0.589844 "
                clip-rule="nonzero" />
        </clipPath>
        <clipPath id="eb9e3a408c">
            <rect x="0" width="50" y="0" height="65" />
        </clipPath>
        <clipPath id="1797a01750">
            <path
                d="M 49.671875 16.5 L 98.421875 16.5 L 98.421875 80.292969 L 49.671875 80.292969 Z M 49.671875 16.5 "
                clip-rule="nonzero" />
        </clipPath>
        <clipPath id="b2f0c88bf2">
            <path
                d="M 57.921875 16.5 L 90.171875 16.5 C 94.726562 16.5 98.421875 20.195312 98.421875 24.75 L 98.421875 72 C 98.421875 76.554688 94.726562 80.25 90.171875 80.25 L 57.921875 80.25 C 53.367188 80.25 49.671875 76.554688 49.671875 72 L 49.671875 24.75 C 49.671875 20.195312 53.367188 16.5 57.921875 16.5 Z M 57.921875 16.5 "
                clip-rule="nonzero" />
        </clipPath>
        <clipPath id="c2c75816a0">
            <path
                d="M 0.671875 0.5 L 49.421875 0.5 L 49.421875 64.292969 L 0.671875 64.292969 Z M 0.671875 0.5 "
                clip-rule="nonzero" />
        </clipPath>
        <clipPath id="8750c2adac">
            <path
                d="M 8.921875 0.5 L 41.171875 0.5 C 45.726562 0.5 49.421875 4.195312 49.421875 8.75 L 49.421875 56 C 49.421875 60.554688 45.726562 64.25 41.171875 64.25 L 8.921875 64.25 C 4.367188 64.25 0.671875 60.554688 0.671875 56 L 0.671875 8.75 C 0.671875 4.195312 4.367188 0.5 8.921875 0.5 Z M 8.921875 0.5 "
                clip-rule="nonzero" />
        </clipPath>
        <clipPath id="599439586f">
            <rect x="0" width="50" y="0" height="65" />
        </clipPath>
        <clipPath id="158b6cee53">
            <path
                d="M 125.164062 16.5 L 173.914062 16.5 L 173.914062 80.292969 L 125.164062 80.292969 Z M 125.164062 16.5 "
                clip-rule="nonzero" />
        </clipPath>
        <clipPath id="269797ed2c">
            <path
                d="M 133.414062 16.5 L 165.664062 16.5 C 170.21875 16.5 173.914062 20.195312 173.914062 24.75 L 173.914062 72 C 173.914062 76.554688 170.21875 80.25 165.664062 80.25 L 133.414062 80.25 C 128.855469 80.25 125.164062 76.554688 125.164062 72 L 125.164062 24.75 C 125.164062 20.195312 128.855469 16.5 133.414062 16.5 Z M 133.414062 16.5 "
                clip-rule="nonzero" />
        </clipPath>
        <clipPath id="302291e0e9">
            <path
                d="M 0.164062 0.5 L 48.914062 0.5 L 48.914062 64.292969 L 0.164062 64.292969 Z M 0.164062 0.5 "
                clip-rule="nonzero" />
        </clipPath>
        <clipPath id="34d53f8d56">
            <path
                d="M 8.414062 0.5 L 40.664062 0.5 C 45.21875 0.5 48.914062 4.195312 48.914062 8.75 L 48.914062 56 C 48.914062 60.554688 45.21875 64.25 40.664062 64.25 L 8.414062 64.25 C 3.855469 64.25 0.164062 60.554688 0.164062 56 L 0.164062 8.75 C 0.164062 4.195312 3.855469 0.5 8.414062 0.5 Z M 8.414062 0.5 "
                clip-rule="nonzero" />
        </clipPath>
        <clipPath id="a44c31110b">
            <rect x="0" width="49" y="0" height="65" />
        </clipPath>
        <clipPath id="3db9d4cb8b">
            <path
                d="M 200.65625 16.5 L 249.40625 16.5 L 249.40625 80.292969 L 200.65625 80.292969 Z M 200.65625 16.5 "
                clip-rule="nonzero" />
        </clipPath>
        <clipPath id="856a577621">
            <path
                d="M 208.90625 16.5 L 241.15625 16.5 C 245.710938 16.5 249.40625 20.195312 249.40625 24.75 L 249.40625 72 C 249.40625 76.554688 245.710938 80.25 241.15625 80.25 L 208.90625 80.25 C 204.347656 80.25 200.65625 76.554688 200.65625 72 L 200.65625 24.75 C 200.65625 20.195312 204.347656 16.5 208.90625 16.5 Z M 208.90625 16.5 "
                clip-rule="nonzero" />
        </clipPath>
        <clipPath id="b1c67ea687">
            <path
                d="M 0.65625 0.5 L 49.40625 0.5 L 49.40625 64.292969 L 0.65625 64.292969 Z M 0.65625 0.5 "
                clip-rule="nonzero" />
        </clipPath>
        <clipPath id="81cf0cd00a">
            <path
                d="M 8.90625 0.5 L 41.15625 0.5 C 45.710938 0.5 49.40625 4.195312 49.40625 8.75 L 49.40625 56 C 49.40625 60.554688 45.710938 64.25 41.15625 64.25 L 8.90625 64.25 C 4.347656 64.25 0.65625 60.554688 0.65625 56 L 0.65625 8.75 C 0.65625 4.195312 4.347656 0.5 8.90625 0.5 Z M 8.90625 0.5 "
                clip-rule="nonzero" />
        </clipPath>
        <clipPath id="39bbdcd061">
            <rect x="0" width="50" y="0" height="65" />
        </clipPath>
        <clipPath id="59455c5271">
            <path
                d="M 276.144531 16.5 L 324.894531 16.5 L 324.894531 80.292969 L 276.144531 80.292969 Z M 276.144531 16.5 "
                clip-rule="nonzero" />
        </clipPath>
        <clipPath id="b9231d52bc">
            <path
                d="M 324.894531 24.75 L 324.894531 71.957031 C 324.894531 76.511719 321.203125 80.207031 316.644531 80.207031 L 284.394531 80.207031 C 279.839844 80.207031 276.144531 76.511719 276.144531 71.957031 L 276.144531 24.75 C 276.144531 20.195312 279.839844 16.5 284.394531 16.5 L 316.644531 16.5 C 321.203125 16.5 324.894531 20.195312 324.894531 24.75 Z M 324.894531 24.75 "
                clip-rule="nonzero" />
        </clipPath>
        <clipPath id="92e09ceea6">
            <path
                d="M 0.144531 0.5 L 48.894531 0.5 L 48.894531 64.292969 L 0.144531 64.292969 Z M 0.144531 0.5 "
                clip-rule="nonzero" />
        </clipPath>
        <clipPath id="63eb160c9f">
            <path
                d="M 48.894531 8.75 L 48.894531 55.957031 C 48.894531 60.511719 45.203125 64.207031 40.644531 64.207031 L 8.394531 64.207031 C 3.839844 64.207031 0.144531 60.511719 0.144531 55.957031 L 0.144531 8.75 C 0.144531 4.195312 3.839844 0.5 8.394531 0.5 L 40.644531 0.5 C 45.203125 0.5 48.894531 4.195312 48.894531 8.75 Z M 48.894531 8.75 "
                clip-rule="nonzero" />
        </clipPath>
        <clipPath id="e605bc1f3b">
            <rect x="0" width="49" y="0" height="65" />
        </clipPath>
        <clipPath id="abe56410d1">
            <path
                d="M 85.785156 273.660156 L 289 273.660156 L 289 337.5 L 85.785156 337.5 Z M 85.785156 273.660156 "
                clip-rule="nonzero" />
        </clipPath>
        <clipPath id="bfbf7a92d6">
            <path
                d="M 94.035156 273.660156 L 280.53125 273.660156 C 285.089844 273.660156 288.78125 277.355469 288.78125 281.910156 L 288.78125 329.25 C 288.78125 333.804688 285.089844 337.5 280.53125 337.5 L 94.035156 337.5 C 89.480469 337.5 85.785156 333.804688 85.785156 329.25 L 85.785156 281.910156 C 85.785156 277.355469 89.480469 273.660156 94.035156 273.660156 Z M 94.035156 273.660156 "
                clip-rule="nonzero" />
        </clipPath>
        <clipPath id="9a86292006">
            <path
                d="M 0.785156 0.660156 L 203.960938 0.660156 L 203.960938 64.5 L 0.785156 64.5 Z M 0.785156 0.660156 "
                clip-rule="nonzero" />
        </clipPath>
        <clipPath id="7d661213f3">
            <path
                d="M 9.035156 0.660156 L 195.53125 0.660156 C 200.089844 0.660156 203.78125 4.355469 203.78125 8.910156 L 203.78125 56.25 C 203.78125 60.804688 200.089844 64.5 195.53125 64.5 L 9.035156 64.5 C 4.480469 64.5 0.785156 60.804688 0.785156 56.25 L 0.785156 8.910156 C 0.785156 4.355469 4.480469 0.660156 9.035156 0.660156 Z M 9.035156 0.660156 "
                clip-rule="nonzero" />
        </clipPath>
        <clipPath id="6bde11a8eb">
            <rect x="0" width="204" y="0" height="65" />
        </clipPath>
        <clipPath id="84bffd396d">
            <path
                d="M 85.792969 273.660156 L 289 273.660156 L 289 337.410156 L 85.792969 337.410156 Z M 85.792969 273.660156 "
                clip-rule="nonzero" />
        </clipPath>
        <clipPath id="0f8a840d5f">
            <path
                d="M 94.042969 273.660156 L 280.519531 273.660156 C 285.078125 273.660156 288.769531 277.355469 288.769531 281.910156 L 288.769531 329.246094 C 288.769531 333.800781 285.078125 337.492188 280.519531 337.492188 L 94.042969 337.492188 C 89.488281 337.492188 85.792969 333.800781 85.792969 329.246094 L 85.792969 281.910156 C 85.792969 277.355469 89.488281 273.660156 94.042969 273.660156 Z M 94.042969 273.660156 "
                clip-rule="nonzero" />
        </clipPath>
        <clipPath id="49ffe1efa2">
            <path d="M 20 5 L 23 5 L 23 21.441406 L 20 21.441406 Z M 20 5 " clip-rule="nonzero" />
        </clipPath>
        <clipPath id="a963a0abc7">
            <path
                d="M 17 0.078125 L 42.558594 0.078125 L 42.558594 21.441406 L 17 21.441406 Z M 17 0.078125 "
                clip-rule="nonzero" />
        </clipPath>
        <clipPath id="a2c2275c62">
            <path
                d="M 0.078125 0.078125 L 26 0.078125 L 26 21.441406 L 0.078125 21.441406 Z M 0.078125 0.078125 "
                clip-rule="nonzero" />
        </clipPath>
        <clipPath id="7ffd729aac">
            <rect x="0" width="43" y="0" height="22" />
        </clipPath>
    </defs>
    <g clip-path="url(#0dc809455a)">
        <g clip-path="url(#294a96a336)">
            <g transform="matrix(1, 0, 0, 1, 91, 102)">
                <g clip-path="url(#c36654fdd7)">
                    <g clip-path="url(#e3f1cb9e06)">
                        <g clip-path="url(#3ed97d3b48)">
                            <path fill="#737373"
                                d="M 0.960938 0.132812 L 49.710938 0.132812 L 49.710938 63.925781 L 0.960938 63.925781 Z M 0.960938 0.132812 "
                                fill-opacity="1" fill-rule="nonzero" />
                        </g>
                    </g>
                </g>
            </g>
        </g>
    </g>
    <g clip-path="url(#f647ac8462)">
        <g clip-path="url(#2885f6231a)">
            <g transform="matrix(1, 0, 0, 1, 162, 102)">
                <g clip-path="url(#a9678e57c7)">
                    <g clip-path="url(#de6be52e6e)">
                        <g clip-path="url(#cb4e5c7a96)">
                            <path fill="#737373"
                                d="M 0.910156 0.132812 L 49.660156 0.132812 L 49.660156 63.925781 L 0.910156 63.925781 Z M 0.910156 0.132812 "
                                fill-opacity="1" fill-rule="nonzero" />
                        </g>
                    </g>
                </g>
            </g>
        </g>
    </g>
    <g clip-path="url(#e715601032)">
        <g clip-path="url(#6a9637f819)">
            <g transform="matrix(1, 0, 0, 1, 233, 102)">
                <g clip-path="url(#643931d46e)">
                    <g clip-path="url(#731d6c01a2)">
                        <g clip-path="url(#f6c2715929)">
                            <path fill="#737373"
                                d="M 0.855469 0.132812 L 49.605469 0.132812 L 49.605469 63.925781 L 0.855469 63.925781 Z M 0.855469 0.132812 "
                                fill-opacity="1" fill-rule="nonzero" />
                        </g>
                    </g>
                </g>
            </g>
        </g>
    </g>
    <g clip-path="url(#450907e51f)">
        <g clip-path="url(#654b286506)">
            <g transform="matrix(1, 0, 0, 1, 49, 102)">
                <g clip-path="url(#17451aa8e7)">
                    <g clip-path="url(#245ad75898)">
                        <g clip-path="url(#2c37ad9174)">
                            <path fill="#737373"
                                d="M 0.671875 0.0898438 L 20.761719 0.0898438 L 20.761719 63.890625 L 0.671875 63.890625 Z M 0.671875 0.0898438 "
                                fill-opacity="1" fill-rule="nonzero" />
                        </g>
                    </g>
                </g>
            </g>
        </g>
    </g>
    <g clip-path="url(#e564d54f69)">
        <g clip-path="url(#faf632844a)">
            <g transform="matrix(1, 0, 0, 1, 304, 102)">
                <g clip-path="url(#f2417fa8e9)">
                    <g clip-path="url(#329b5fb2a4)">
                        <g clip-path="url(#2f47edb977)">
                            <path fill="#737373"
                                d="M 0.804688 0.0898438 L 20.894531 0.0898438 L 20.894531 63.890625 L 0.804688 63.890625 Z M 0.804688 0.0898438 "
                                fill-opacity="1" fill-rule="nonzero" />
                        </g>
                    </g>
                </g>
            </g>
        </g>
    </g>
    <g clip-path="url(#32b216974c)">
        <g clip-path="url(#72ec065f33)">
            <g transform="matrix(1, 0, 0, 1, 49, 273)">
                <g clip-path="url(#42cac5d0df)">
                    <g clip-path="url(#67bbcd4a95)">
                        <g clip-path="url(#480c90b03f)">
                            <path fill="#737373"
                                d="M 0.671875 0.660156 L 20.761719 0.660156 L 20.761719 64.464844 L 0.671875 64.464844 Z M 0.671875 0.660156 "
                                fill-opacity="1" fill-rule="nonzero" />
                        </g>
                    </g>
                </g>
            </g>
        </g>
    </g>
    <g clip-path="url(#e78311051a)">
        <g clip-path="url(#c6855810f2)">
            <g transform="matrix(1, 0, 0, 1, 304, 273)">
                <g clip-path="url(#1374f31ba2)">
                    <g clip-path="url(#d17e0fd0a2)">
                        <g clip-path="url(#8e8e049ed3)">
                            <path fill="#737373"
                                d="M 0.804688 0.660156 L 20.894531 0.660156 L 20.894531 64.464844 L 0.804688 64.464844 Z M 0.804688 0.660156 "
                                fill-opacity="1" fill-rule="nonzero" />
                        </g>
                    </g>
                </g>
            </g>
        </g>
    </g>
    <g clip-path="url(#06de0f81a8)">
        <g clip-path="url(#4148124155)">
            <g transform="matrix(1, 0, 0, 1, 49, 187)">
                <g clip-path="url(#79bbda590f)">
                    <g clip-path="url(#13bf2b166c)">
                        <g clip-path="url(#4145df6dbd)">
                            <path fill="#737373"
                                d="M 0.671875 0.589844 L 49.421875 0.589844 L 49.421875 64.382812 L 0.671875 64.382812 Z M 0.671875 0.589844 "
                                fill-opacity="1" fill-rule="nonzero" />
                        </g>
                    </g>
                </g>
            </g>
        </g>
    </g>
    <g clip-path="url(#5b2a10e643)">
        <g clip-path="url(#53cd8d075f)">
            <g transform="matrix(1, 0, 0, 1, 125, 187)">
                <g clip-path="url(#e383069fba)">
                    <g clip-path="url(#a24d23b851)">
                        <g clip-path="url(#620136e061)">
                            <path fill="#737373"
                                d="M 0.308594 0.589844 L 49.058594 0.589844 L 49.058594 64.382812 L 0.308594 64.382812 Z M 0.308594 0.589844 "
                                fill-opacity="1" fill-rule="nonzero" />
                        </g>
                    </g>
                </g>
            </g>
        </g>
    </g>
    <g clip-path="url(#2acdeff956)">
        <g clip-path="url(#c7799a8c73)">
            <g transform="matrix(1, 0, 0, 1, 200, 187)">
                <g clip-path="url(#4bc052146e)">
                    <g clip-path="url(#89b59820aa)">
                        <g clip-path="url(#8a1681cb67)">
                            <path fill="#737373"
                                d="M 0.941406 0.589844 L 49.691406 0.589844 L 49.691406 64.382812 L 0.941406 64.382812 Z M 0.941406 0.589844 "
                                fill-opacity="1" fill-rule="nonzero" />
                        </g>
                    </g>
                </g>
            </g>
        </g>
    </g>
    <g clip-path="url(#82e44a2320)">
        <g clip-path="url(#39845e2fd3)">
            <g transform="matrix(1, 0, 0, 1, 276, 187)">
                <g clip-path="url(#eb9e3a408c)">
                    <g clip-path="url(#7f807030c2)">
                        <g clip-path="url(#e4b2fb9b9a)">
                            <path fill="#737373"
                                d="M 0.578125 0.589844 L 49.328125 0.589844 L 49.328125 64.382812 L 0.578125 64.382812 Z M 0.578125 0.589844 "
                                fill-opacity="1" fill-rule="nonzero" />
                        </g>
                    </g>
                </g>
            </g>
        </g>
    </g>
    <g clip-path="url(#1797a01750)">
        <g clip-path="url(#b2f0c88bf2)">
            <g transform="matrix(1, 0, 0, 1, 49, 16)">
                <g clip-path="url(#599439586f)">
                    <g clip-path="url(#c2c75816a0)">
                        <g clip-path="url(#8750c2adac)">
                            <path fill="#737373"
                                d="M 0.671875 0.5 L 49.421875 0.5 L 49.421875 64.292969 L 0.671875 64.292969 Z M 0.671875 0.5 "
                                fill-opacity="1" fill-rule="nonzero" />
                        </g>
                    </g>
                </g>
            </g>
        </g>
    </g>
    <g clip-path="url(#158b6cee53)">
        <g clip-path="url(#269797ed2c)">
            <g transform="matrix(1, 0, 0, 1, 125, 16)">
                <g clip-path="url(#a44c31110b)">
                    <g clip-path="url(#302291e0e9)">
                        <g clip-path="url(#34d53f8d56)">
                            <path fill="#737373"
                                d="M 0.164062 0.5 L 48.914062 0.5 L 48.914062 64.292969 L 0.164062 64.292969 Z M 0.164062 0.5 "
                                fill-opacity="1" fill-rule="nonzero" />
                        </g>
                    </g>
                </g>
            </g>
        </g>
    </g>
    <g clip-path="url(#3db9d4cb8b)">
        <g clip-path="url(#856a577621)">
            <g transform="matrix(1, 0, 0, 1, 200, 16)">
                <g clip-path="url(#39bbdcd061)">
                    <g clip-path="url(#b1c67ea687)">
                        <g clip-path="url(#81cf0cd00a)">
                            <path fill="#737373"
                                d="M 0.65625 0.5 L 49.40625 0.5 L 49.40625 64.292969 L 0.65625 64.292969 Z M 0.65625 0.5 "
                                fill-opacity="1" fill-rule="nonzero" />
                        </g>
                    </g>
                </g>
            </g>
        </g>
    </g>
    <g clip-path="url(#59455c5271)">
        <g clip-path="url(#b9231d52bc)">
            <g transform="matrix(1, 0, 0, 1, 276, 16)">
                <g clip-path="url(#e605bc1f3b)">
                    <g clip-path="url(#92e09ceea6)">
                        <g clip-path="url(#63eb160c9f)">
                            <path fill="#737373"
                                d="M 0.144531 0.5 L 48.894531 0.5 L 48.894531 64.292969 L 0.144531 64.292969 Z M 0.144531 0.5 "
                                fill-opacity="1" fill-rule="nonzero" />
                        </g>
                    </g>
                </g>
            </g>
        </g>
    </g>
    <g clip-path="url(#abe56410d1)">
        <g clip-path="url(#bfbf7a92d6)">
            <g transform="matrix(1, 0, 0, 1, 85, 273)">
                <g clip-path="url(#6bde11a8eb)">
                    <g clip-path="url(#9a86292006)">
                        <g clip-path="url(#7d661213f3)">
                            <path fill="#ffffff"
                                d="M 0.785156 0.660156 L 203.769531 0.660156 L 203.769531 64.5 L 0.785156 64.5 Z M 0.785156 0.660156 "
                                fill-opacity="1" fill-rule="nonzero" />
                        </g>
                    </g>
                </g>
            </g>
        </g>
    </g>
    <g clip-path="url(#84bffd396d)">
        <g clip-path="url(#0f8a840d5f)">
            <path stroke-linecap="butt" transform="matrix(0.75, 0, 0, 0.75, 85.793956, 273.661916)"
                fill="none" stroke-linejoin="miter"
                d="M 10.998684 -0.00234691 L 259.634101 -0.00234691 C 265.712226 -0.00234691 270.634101 4.924736 270.634101 10.997653 L 270.634101 74.112237 C 270.634101 80.185153 265.712226 85.107028 259.634101 85.107028 L 10.998684 85.107028 C 4.925767 85.107028 -0.00131589 80.185153 -0.00131589 74.112237 L -0.00131589 10.997653 C -0.00131589 4.924736 4.925767 -0.00234691 10.998684 -0.00234691 Z M 10.998684 -0.00234691 "
                stroke="#000000" stroke-width="18" stroke-opacity="1" stroke-miterlimit="4" />
        </g>
    </g>
    <path stroke-linecap="round" transform="matrix(0.75, 0, 0, 0.75, 157.043418, 322.340019)"
        fill="none" stroke-linejoin="miter" d="M 1.999401 1.999767 L 79.218156 1.999767 "
        stroke="#000000" stroke-width="4" stroke-opacity="1" stroke-miterlimit="4" />
    <g transform="matrix(1, 0, 0, 1, 166, 346)">
        <g clip-path="url(#7ffd729aac)">
            <g clip-path="url(#49ffe1efa2)">
                <path stroke-linecap="round"
                    transform="matrix(-0.00000000158203, -0.906437, 0.906437, -0.00000000158203, 20.267004, 21.425034)"
                    fill="none" stroke-linejoin="miter"
                    d="M 1.498866 1.498169 L 16.228579 1.498169 " stroke="#000000" stroke-width="3"
                    stroke-opacity="1" stroke-miterlimit="4" />
            </g>
            <g clip-path="url(#a963a0abc7)">
                <path stroke-linecap="round"
                    transform="matrix(-0.413661, -0.806544, 0.806544, -0.413661, 40.053453, 19.998247)"
                    fill="none" stroke-linejoin="miter" d="M 1.49909 1.501706 L 20.543225 1.500343 "
                    stroke="#000000" stroke-width="3" stroke-opacity="1" stroke-miterlimit="4" />
            </g>
            <g clip-path="url(#a2c2275c62)">
                <path stroke-linecap="round"
                    transform="matrix(-0.413454, 0.80665, -0.80665, -0.413454, 12.063968, 2.804645)"
                    fill="none" stroke-linejoin="miter" d="M 1.499807 1.4994 L 20.54581 1.49983 "
                    stroke="#000000" stroke-width="3" stroke-opacity="1" stroke-miterlimit="4" />
            </g>
        </g>
    </g>
</svg>